<mxfile host="app.diagrams.net" modified="2021-06-23T01:09:29.340Z" agent="5.0 (Windows NT 10.0; Win64; x64) AppleWebKit/537.36 (KHTML, like Gecko) Chrome/91.0.4472.114 Safari/537.36" etag="BU_6kwBPrVASE0ONJH0l" version="14.8.0" type="github">
  <diagram id="7mWb_QVSyXpmji1LLNrM" name="Page-1">
    <mxGraphModel dx="2388" dy="980" grid="1" gridSize="10" guides="1" tooltips="1" connect="1" arrows="1" fold="1" page="1" pageScale="1" pageWidth="850" pageHeight="1100" math="0" shadow="0">
      <root>
        <mxCell id="0" />
        <mxCell id="1" parent="0" />
        <mxCell id="ZSu7wK49uFVJS4eU9fQS-1" value="AWS Cloud" style="points=[[0,0],[0.25,0],[0.5,0],[0.75,0],[1,0],[1,0.25],[1,0.5],[1,0.75],[1,1],[0.75,1],[0.5,1],[0.25,1],[0,1],[0,0.75],[0,0.5],[0,0.25]];outlineConnect=0;html=1;whiteSpace=wrap;fontSize=10;fontStyle=0;shape=mxgraph.aws4.group;grIcon=mxgraph.aws4.group_aws_cloud_alt;verticalAlign=top;align=left;spacingLeft=30;dashed=0;fillColor=#fad7ac;strokeColor=#b46504;gradientDirection=south;gradientColor=#FFD6EB;" parent="1" vertex="1">
          <mxGeometry x="-520" width="1890" height="914" as="geometry" />
        </mxCell>
        <mxCell id="ZSu7wK49uFVJS4eU9fQS-36" value="Request" style="text;html=1;strokeColor=none;fillColor=none;align=center;verticalAlign=middle;whiteSpace=wrap;rounded=0;fontSize=15;fontColor=#CC0000;" parent="1" vertex="1">
          <mxGeometry x="-460" y="430.75" width="90" height="21" as="geometry" />
        </mxCell>
        <mxCell id="z7yAeGO7BevoQCHSSR_a-1" value="" style="dashed=0;outlineConnect=0;html=1;align=center;labelPosition=center;verticalLabelPosition=bottom;verticalAlign=top;shape=mxgraph.weblogos.chrome;fontSize=15;fontColor=#000033;fillColor=none;" parent="1" vertex="1">
          <mxGeometry x="-610" y="438.5" width="80" height="80" as="geometry" />
        </mxCell>
        <mxCell id="i-a14JuN5c1ziyFvd1xm-6" value="" style="outlineConnect=0;fontColor=#232F3E;gradientColor=none;fillColor=#277116;strokeColor=none;dashed=0;verticalLabelPosition=bottom;verticalAlign=top;align=center;html=1;fontSize=12;fontStyle=0;aspect=fixed;pointerEvents=1;shape=mxgraph.aws4.bucket_with_objects;" parent="1" vertex="1">
          <mxGeometry x="985.6700000000001" y="180" width="114.8" height="150" as="geometry" />
        </mxCell>
        <mxCell id="i-a14JuN5c1ziyFvd1xm-11" value="Bucket Policy&lt;br style=&quot;font-size: 17px;&quot;&gt;s3:GetObject" style="text;html=1;strokeColor=none;fillColor=none;align=center;verticalAlign=middle;whiteSpace=wrap;rounded=0;fontSize=17;fontColor=#CC0000;" parent="1" vertex="1">
          <mxGeometry x="991.07" y="46" width="110" height="20" as="geometry" />
        </mxCell>
        <mxCell id="i-a14JuN5c1ziyFvd1xm-37" value="Response" style="text;html=1;strokeColor=none;fillColor=none;align=center;verticalAlign=middle;whiteSpace=wrap;rounded=0;fontSize=15;fontColor=#006600;" parent="1" vertex="1">
          <mxGeometry x="-450" y="500" width="90" height="20" as="geometry" />
        </mxCell>
        <mxCell id="i-a14JuN5c1ziyFvd1xm-44" value="" style="endArrow=classic;html=1;entryX=0;entryY=0.75;entryDx=0;entryDy=0;" parent="1" edge="1">
          <mxGeometry width="50" height="50" relative="1" as="geometry">
            <mxPoint x="1091" y="227.5" as="sourcePoint" />
            <mxPoint x="1181" y="180" as="targetPoint" />
          </mxGeometry>
        </mxCell>
        <mxCell id="i-a14JuN5c1ziyFvd1xm-53" value="" style="endArrow=classic;html=1;dashed=1;shadow=1;strokeColor=#FF2441;strokeWidth=2;" parent="1" edge="1">
          <mxGeometry width="50" height="50" relative="1" as="geometry">
            <mxPoint x="-480" y="460.38" as="sourcePoint" />
            <mxPoint x="-340" y="460.38" as="targetPoint" />
          </mxGeometry>
        </mxCell>
        <mxCell id="i-a14JuN5c1ziyFvd1xm-55" value="" style="endArrow=classic;html=1;dashed=1;shadow=1;strokeWidth=2;strokeColor=#009900;" parent="1" edge="1">
          <mxGeometry width="50" height="50" relative="1" as="geometry">
            <mxPoint x="-353" y="491.91" as="sourcePoint" />
            <mxPoint x="-470" y="492" as="targetPoint" />
          </mxGeometry>
        </mxCell>
        <mxCell id="i-a14JuN5c1ziyFvd1xm-56" value="previous index.html&lt;br&gt;v1" style="text;html=1;strokeColor=none;fillColor=none;align=center;verticalAlign=middle;whiteSpace=wrap;rounded=0;fontSize=19;fontColor=#0000CC;" parent="1" vertex="1">
          <mxGeometry x="1260" y="139.07" width="110" height="20" as="geometry" />
        </mxCell>
        <mxCell id="i-a14JuN5c1ziyFvd1xm-58" value="error.html" style="text;html=1;strokeColor=none;fillColor=none;align=center;verticalAlign=middle;whiteSpace=wrap;rounded=0;fontSize=19;fontColor=#0000CC;" parent="1" vertex="1">
          <mxGeometry x="1195" y="510" width="110" height="20" as="geometry" />
        </mxCell>
        <mxCell id="i-a14JuN5c1ziyFvd1xm-59" value="Amazon S3" style="text;html=1;strokeColor=none;fillColor=none;align=center;verticalAlign=middle;whiteSpace=wrap;rounded=0;fontSize=15;fontColor=#006600;fontStyle=1" parent="1" vertex="1">
          <mxGeometry x="910" width="110" height="20" as="geometry" />
        </mxCell>
        <mxCell id="i-a14JuN5c1ziyFvd1xm-68" value="By: Praful Patel" style="text;html=1;align=center;verticalAlign=middle;whiteSpace=wrap;rounded=0;fontSize=13;fontFamily=Lucida Console;strokeColor=#666666;dashed=1;dashPattern=1 2;fillColor=#B5F5E2;" parent="1" vertex="1">
          <mxGeometry x="1210" y="890" width="160" height="20" as="geometry" />
        </mxCell>
        <mxCell id="1wSVD4bbN0lhKhuA_OCm-9" style="edgeStyle=orthogonalEdgeStyle;rounded=0;orthogonalLoop=1;jettySize=auto;html=1;strokeColor=#FF00FF;" edge="1" parent="1" source="n2wOT85QUNqrd-Oq4VBR-2">
          <mxGeometry relative="1" as="geometry">
            <mxPoint x="-760" y="430" as="targetPoint" />
            <Array as="points">
              <mxPoint x="1224" y="20" />
              <mxPoint x="-760" y="20" />
            </Array>
          </mxGeometry>
        </mxCell>
        <mxCell id="n2wOT85QUNqrd-Oq4VBR-2" value="" style="dashed=0;outlineConnect=0;html=1;align=center;labelPosition=center;verticalLabelPosition=bottom;verticalAlign=top;shape=mxgraph.weblogos.chrome;fontSize=15;fontColor=#000033;fillColor=none;" parent="1" vertex="1">
          <mxGeometry x="1184" y="134.5" width="80" height="80" as="geometry" />
        </mxCell>
        <mxCell id="n2wOT85QUNqrd-Oq4VBR-3" value="" style="dashed=0;outlineConnect=0;html=1;align=center;labelPosition=center;verticalLabelPosition=bottom;verticalAlign=top;shape=mxgraph.weblogos.chrome;fontSize=15;fontColor=#000033;fillColor=none;" parent="1" vertex="1">
          <mxGeometry x="1195" y="417" width="80" height="80" as="geometry" />
        </mxCell>
        <mxCell id="n2wOT85QUNqrd-Oq4VBR-11" value="&lt;br style=&quot;font-size: 19px;&quot;&gt;&lt;br style=&quot;font-size: 19px;&quot;&gt;&lt;font color=&quot;#000033&quot; style=&quot;font-size: 19px;&quot;&gt;prafulcloud.com&lt;/font&gt;" style="text;html=1;strokeColor=none;fillColor=none;align=center;verticalAlign=middle;whiteSpace=wrap;rounded=0;fontSize=19;fontColor=#0000CC;strokeWidth=23;" parent="1" vertex="1">
          <mxGeometry x="991" y="300" width="110" height="20" as="geometry" />
        </mxCell>
        <mxCell id="n2wOT85QUNqrd-Oq4VBR-12" value="&lt;br style=&quot;font-size: 19px;&quot;&gt;&lt;font color=&quot;#000033&quot; style=&quot;font-size: 19px;&quot;&gt;www.prafulcloud.com&lt;/font&gt;" style="text;html=1;strokeColor=none;fillColor=none;align=center;verticalAlign=middle;whiteSpace=wrap;rounded=0;fontSize=19;fontColor=#0000CC;strokeWidth=23;" parent="1" vertex="1">
          <mxGeometry x="1001" y="706" width="110" height="20" as="geometry" />
        </mxCell>
        <mxCell id="n2wOT85QUNqrd-Oq4VBR-25" style="edgeStyle=orthogonalEdgeStyle;rounded=0;orthogonalLoop=1;jettySize=auto;html=1;fontSize=23;entryX=-0.024;entryY=0.616;entryDx=0;entryDy=0;entryPerimeter=0;" parent="1" source="n2wOT85QUNqrd-Oq4VBR-13" edge="1" target="n2wOT85QUNqrd-Oq4VBR-15">
          <mxGeometry relative="1" as="geometry">
            <mxPoint x="670" y="659" as="targetPoint" />
          </mxGeometry>
        </mxCell>
        <mxCell id="n2wOT85QUNqrd-Oq4VBR-31" style="edgeStyle=orthogonalEdgeStyle;rounded=0;orthogonalLoop=1;jettySize=auto;html=1;fontSize=23;" parent="1" source="n2wOT85QUNqrd-Oq4VBR-13" target="n2wOT85QUNqrd-Oq4VBR-29" edge="1">
          <mxGeometry relative="1" as="geometry" />
        </mxCell>
        <mxCell id="1wSVD4bbN0lhKhuA_OCm-16" style="edgeStyle=orthogonalEdgeStyle;rounded=0;orthogonalLoop=1;jettySize=auto;html=1;strokeColor=#FF00FF;" edge="1" parent="1" source="n2wOT85QUNqrd-Oq4VBR-13" target="1wSVD4bbN0lhKhuA_OCm-10">
          <mxGeometry relative="1" as="geometry">
            <Array as="points">
              <mxPoint x="628" y="640" />
            </Array>
          </mxGeometry>
        </mxCell>
        <mxCell id="n2wOT85QUNqrd-Oq4VBR-13" value="" style="points=[[0,0,0],[0.25,0,0],[0.5,0,0],[0.75,0,0],[1,0,0],[0,1,0],[0.25,1,0],[0.5,1,0],[0.75,1,0],[1,1,0],[0,0.25,0],[0,0.5,0],[0,0.75,0],[1,0.25,0],[1,0.5,0],[1,0.75,0]];outlineConnect=0;fontColor=#232F3E;gradientColor=#945DF2;gradientDirection=north;fillColor=#5A30B5;strokeColor=#ffffff;dashed=0;verticalLabelPosition=bottom;verticalAlign=top;align=center;html=1;fontSize=12;fontStyle=0;aspect=fixed;shape=mxgraph.aws4.resourceIcon;resIcon=mxgraph.aws4.cloudfront;" parent="1" vertex="1">
          <mxGeometry x="330.65" y="612" width="94" height="94" as="geometry" />
        </mxCell>
        <mxCell id="n2wOT85QUNqrd-Oq4VBR-33" style="edgeStyle=orthogonalEdgeStyle;rounded=0;orthogonalLoop=1;jettySize=auto;html=1;fontSize=23;fontColor=#000033;" parent="1" source="n2wOT85QUNqrd-Oq4VBR-14" edge="1">
          <mxGeometry relative="1" as="geometry">
            <mxPoint x="320" y="254" as="targetPoint" />
          </mxGeometry>
        </mxCell>
        <mxCell id="n2wOT85QUNqrd-Oq4VBR-14" value="" style="points=[[0,0,0],[0.25,0,0],[0.5,0,0],[0.75,0,0],[1,0,0],[0,1,0],[0.25,1,0],[0.5,1,0],[0.75,1,0],[1,1,0],[0,0.25,0],[0,0.5,0],[0,0.75,0],[1,0.25,0],[1,0.5,0],[1,0.75,0]];outlineConnect=0;fontColor=#232F3E;gradientColor=#945DF2;gradientDirection=north;fillColor=#5A30B5;strokeColor=#ffffff;dashed=0;verticalLabelPosition=bottom;verticalAlign=top;align=center;html=1;fontSize=12;fontStyle=0;aspect=fixed;shape=mxgraph.aws4.resourceIcon;resIcon=mxgraph.aws4.route_53;" parent="1" vertex="1">
          <mxGeometry x="-58" y="216" width="78" height="78" as="geometry" />
        </mxCell>
        <mxCell id="n2wOT85QUNqrd-Oq4VBR-15" value="" style="outlineConnect=0;fontColor=#232F3E;gradientColor=none;fillColor=#277116;strokeColor=none;dashed=0;verticalLabelPosition=bottom;verticalAlign=top;align=center;html=1;fontSize=12;fontStyle=0;aspect=fixed;pointerEvents=1;shape=mxgraph.aws4.bucket_with_objects;" parent="1" vertex="1">
          <mxGeometry x="985.6700000000001" y="570" width="114.8" height="150" as="geometry" />
        </mxCell>
        <mxCell id="n2wOT85QUNqrd-Oq4VBR-18" value="" style="shape=image;html=1;verticalAlign=top;verticalLabelPosition=bottom;labelBackgroundColor=#ffffff;imageAspect=0;aspect=fixed;image=https://cdn3.iconfinder.com/data/icons/file-set-volume-1/512/Artboard_9-128.png;fontSize=23;strokeWidth=23;" parent="1" vertex="1">
          <mxGeometry x="1001" y="74.93" width="84.14" height="84.14" as="geometry" />
        </mxCell>
        <mxCell id="n2wOT85QUNqrd-Oq4VBR-23" value="" style="endArrow=classic;html=1;fontSize=23;" parent="1" edge="1">
          <mxGeometry width="50" height="50" relative="1" as="geometry">
            <mxPoint x="1045.41" y="149.5" as="sourcePoint" />
            <mxPoint x="1045.41" y="199.5" as="targetPoint" />
          </mxGeometry>
        </mxCell>
        <mxCell id="n2wOT85QUNqrd-Oq4VBR-26" style="edgeStyle=orthogonalEdgeStyle;rounded=0;orthogonalLoop=1;jettySize=auto;html=1;entryX=-0.091;entryY=-1.35;entryDx=0;entryDy=0;entryPerimeter=0;fontSize=23;" parent="1" source="n2wOT85QUNqrd-Oq4VBR-24" target="n2wOT85QUNqrd-Oq4VBR-11" edge="1">
          <mxGeometry relative="1" as="geometry" />
        </mxCell>
        <mxCell id="n2wOT85QUNqrd-Oq4VBR-30" style="edgeStyle=orthogonalEdgeStyle;rounded=0;orthogonalLoop=1;jettySize=auto;html=1;fontSize=23;" parent="1" source="n2wOT85QUNqrd-Oq4VBR-24" target="n2wOT85QUNqrd-Oq4VBR-29" edge="1">
          <mxGeometry relative="1" as="geometry" />
        </mxCell>
        <mxCell id="1wSVD4bbN0lhKhuA_OCm-15" style="edgeStyle=orthogonalEdgeStyle;rounded=0;orthogonalLoop=1;jettySize=auto;html=1;strokeColor=#FF00FF;" edge="1" parent="1" source="n2wOT85QUNqrd-Oq4VBR-24" target="1wSVD4bbN0lhKhuA_OCm-10">
          <mxGeometry relative="1" as="geometry">
            <Array as="points">
              <mxPoint x="628" y="310" />
            </Array>
          </mxGeometry>
        </mxCell>
        <mxCell id="n2wOT85QUNqrd-Oq4VBR-24" value="" style="points=[[0,0,0],[0.25,0,0],[0.5,0,0],[0.75,0,0],[1,0,0],[0,1,0],[0.25,1,0],[0.5,1,0],[0.75,1,0],[1,1,0],[0,0.25,0],[0,0.5,0],[0,0.75,0],[1,0.25,0],[1,0.5,0],[1,0.75,0]];outlineConnect=0;fontColor=#232F3E;gradientColor=#945DF2;gradientDirection=north;fillColor=#5A30B5;strokeColor=#ffffff;dashed=0;verticalLabelPosition=bottom;verticalAlign=top;align=center;html=1;fontSize=12;fontStyle=0;aspect=fixed;shape=mxgraph.aws4.resourceIcon;resIcon=mxgraph.aws4.cloudfront;" parent="1" vertex="1">
          <mxGeometry x="330.65" y="226" width="94" height="94" as="geometry" />
        </mxCell>
        <mxCell id="n2wOT85QUNqrd-Oq4VBR-27" value="Updated to new index.html&lt;br&gt;v2" style="text;html=1;strokeColor=none;fillColor=none;align=center;verticalAlign=middle;whiteSpace=wrap;rounded=0;fontSize=19;fontColor=#0000CC;strokeWidth=23;" parent="1" vertex="1">
          <mxGeometry x="730" y="115.5" width="110" height="24.5" as="geometry" />
        </mxCell>
        <mxCell id="n2wOT85QUNqrd-Oq4VBR-28" value="&lt;font color=&quot;#000033&quot; style=&quot;font-size: 19px;&quot;&gt;&lt;br style=&quot;font-size: 19px;&quot;&gt;www&lt;br style=&quot;font-size: 19px;&quot;&gt;cloudfront distribution&lt;br style=&quot;font-size: 19px;&quot;&gt;www.prafulcloud.com&lt;/font&gt;" style="text;html=1;strokeColor=none;fillColor=none;align=center;verticalAlign=middle;whiteSpace=wrap;rounded=0;fontSize=19;fontColor=#0000CC;strokeWidth=23;" parent="1" vertex="1">
          <mxGeometry x="322.65" y="660" width="110" height="190" as="geometry" />
        </mxCell>
        <mxCell id="n2wOT85QUNqrd-Oq4VBR-29" value="" style="shape=image;html=1;verticalAlign=top;verticalLabelPosition=bottom;labelBackgroundColor=#ffffff;imageAspect=0;aspect=fixed;image=https://cdn2.iconfinder.com/data/icons/whcompare-blue-green-web-hosting-1/389/ssl-certificate-128.png;fontSize=23;strokeWidth=23;" parent="1" vertex="1">
          <mxGeometry x="110" y="405" width="128" height="128" as="geometry" />
        </mxCell>
        <mxCell id="n2wOT85QUNqrd-Oq4VBR-32" value="prafulcloud.com&lt;br style=&quot;font-size: 19px;&quot;&gt;SSL certificate" style="text;html=1;strokeColor=none;fillColor=none;align=center;verticalAlign=middle;whiteSpace=wrap;rounded=0;fontSize=19;strokeWidth=23;fontColor=#000033;" parent="1" vertex="1">
          <mxGeometry x="250" y="453" width="140" height="20" as="geometry" />
        </mxCell>
        <mxCell id="n2wOT85QUNqrd-Oq4VBR-35" style="edgeStyle=orthogonalEdgeStyle;rounded=0;orthogonalLoop=1;jettySize=auto;html=1;fontSize=23;fontColor=#000033;" parent="1" source="n2wOT85QUNqrd-Oq4VBR-36" edge="1">
          <mxGeometry relative="1" as="geometry">
            <mxPoint x="320" y="681" as="targetPoint" />
          </mxGeometry>
        </mxCell>
        <mxCell id="n2wOT85QUNqrd-Oq4VBR-36" value="" style="points=[[0,0,0],[0.25,0,0],[0.5,0,0],[0.75,0,0],[1,0,0],[0,1,0],[0.25,1,0],[0.5,1,0],[0.75,1,0],[1,1,0],[0,0.25,0],[0,0.5,0],[0,0.75,0],[1,0.25,0],[1,0.5,0],[1,0.75,0]];outlineConnect=0;fontColor=#232F3E;gradientColor=#945DF2;gradientDirection=north;fillColor=#5A30B5;strokeColor=#ffffff;dashed=0;verticalLabelPosition=bottom;verticalAlign=top;align=center;html=1;fontSize=12;fontStyle=0;aspect=fixed;shape=mxgraph.aws4.resourceIcon;resIcon=mxgraph.aws4.route_53;" parent="1" vertex="1">
          <mxGeometry x="-58" y="643" width="78" height="78" as="geometry" />
        </mxCell>
        <mxCell id="n2wOT85QUNqrd-Oq4VBR-37" value="non-www&lt;br style=&quot;font-size: 19px;&quot;&gt;Route53 record" style="text;html=1;strokeColor=none;fillColor=none;align=center;verticalAlign=middle;whiteSpace=wrap;rounded=0;fontSize=19;strokeWidth=23;fontColor=#000033;" parent="1" vertex="1">
          <mxGeometry x="-104" y="170" width="170" height="20" as="geometry" />
        </mxCell>
        <mxCell id="n2wOT85QUNqrd-Oq4VBR-38" value="www&lt;br style=&quot;font-size: 19px;&quot;&gt;Route53 record" style="text;html=1;strokeColor=none;fillColor=none;align=center;verticalAlign=middle;whiteSpace=wrap;rounded=0;fontSize=19;strokeWidth=23;fontColor=#000033;" parent="1" vertex="1">
          <mxGeometry x="-100" y="752" width="170" height="20" as="geometry" />
        </mxCell>
        <mxCell id="n2wOT85QUNqrd-Oq4VBR-43" style="edgeStyle=orthogonalEdgeStyle;rounded=0;orthogonalLoop=1;jettySize=auto;html=1;entryX=0;entryY=0.75;entryDx=0;entryDy=0;entryPerimeter=0;fontSize=17;fontColor=#000033;exitX=0.52;exitY=1;exitDx=0;exitDy=0;exitPerimeter=0;" parent="1" source="n2wOT85QUNqrd-Oq4VBR-40" target="n2wOT85QUNqrd-Oq4VBR-36" edge="1">
          <mxGeometry relative="1" as="geometry">
            <Array as="points">
              <mxPoint x="-304" y="701" />
            </Array>
          </mxGeometry>
        </mxCell>
        <mxCell id="n2wOT85QUNqrd-Oq4VBR-45" style="edgeStyle=orthogonalEdgeStyle;rounded=0;orthogonalLoop=1;jettySize=auto;html=1;entryX=0;entryY=0.75;entryDx=0;entryDy=0;entryPerimeter=0;fontSize=17;fontColor=#000033;exitX=0.51;exitY=0;exitDx=0;exitDy=0;exitPerimeter=0;" parent="1" source="n2wOT85QUNqrd-Oq4VBR-40" target="n2wOT85QUNqrd-Oq4VBR-14" edge="1">
          <mxGeometry relative="1" as="geometry" />
        </mxCell>
        <mxCell id="n2wOT85QUNqrd-Oq4VBR-40" value="" style="outlineConnect=0;dashed=0;verticalLabelPosition=bottom;verticalAlign=top;align=center;html=1;shape=mxgraph.aws3.hosted_zone;fillColor=#F58536;gradientColor=none;fontSize=17;fontColor=#000033;strokeWidth=23;" parent="1" vertex="1">
          <mxGeometry x="-340" y="430.75" width="70" height="79.25" as="geometry" />
        </mxCell>
        <mxCell id="n2wOT85QUNqrd-Oq4VBR-46" value="prafulcloud.com&lt;br&gt;Hosted Zone&lt;br&gt;" style="text;html=1;strokeColor=none;fillColor=none;align=center;verticalAlign=middle;whiteSpace=wrap;rounded=0;fontSize=19;strokeWidth=23;fontColor=#000033;" parent="1" vertex="1">
          <mxGeometry x="-270" y="460.38" width="170" height="20" as="geometry" />
        </mxCell>
        <mxCell id="n2wOT85QUNqrd-Oq4VBR-49" style="edgeStyle=orthogonalEdgeStyle;rounded=0;orthogonalLoop=1;jettySize=auto;html=1;fontSize=17;fontColor=#FFFF00;" parent="1" source="n2wOT85QUNqrd-Oq4VBR-48" target="z7yAeGO7BevoQCHSSR_a-1" edge="1">
          <mxGeometry relative="1" as="geometry" />
        </mxCell>
        <mxCell id="n2wOT85QUNqrd-Oq4VBR-48" value="" style="outlineConnect=0;dashed=0;verticalLabelPosition=bottom;verticalAlign=top;align=center;html=1;shape=mxgraph.aws3.users;fontSize=17;fontColor=#FFFF00;strokeColor=#B266FF;strokeWidth=23;gradientColor=#66B2FF;fillColor=#000099;" parent="1" vertex="1">
          <mxGeometry x="-790" y="447" width="70" height="63" as="geometry" />
        </mxCell>
        <mxCell id="n2wOT85QUNqrd-Oq4VBR-50" value="http://prafulcloud.com" style="text;html=1;strokeColor=none;fillColor=none;align=center;verticalAlign=middle;whiteSpace=wrap;rounded=0;fontSize=19;strokeWidth=23;fontColor=#000033;" parent="1" vertex="1">
          <mxGeometry x="-660" y="405" width="170" height="20" as="geometry" />
        </mxCell>
        <mxCell id="n2wOT85QUNqrd-Oq4VBR-51" value="https://www.prafulcloud.com" style="text;html=1;strokeColor=none;fillColor=none;align=center;verticalAlign=middle;whiteSpace=wrap;rounded=0;fontSize=19;strokeWidth=23;fontColor=#000033;" parent="1" vertex="1">
          <mxGeometry x="-680" y="533" width="170" height="20" as="geometry" />
        </mxCell>
        <mxCell id="1wSVD4bbN0lhKhuA_OCm-8" style="edgeStyle=orthogonalEdgeStyle;rounded=0;orthogonalLoop=1;jettySize=auto;html=1;fillColor=#dae8fc;strokeColor=#FF00FF;" edge="1" parent="1" source="1wSVD4bbN0lhKhuA_OCm-6" target="i-a14JuN5c1ziyFvd1xm-6">
          <mxGeometry relative="1" as="geometry">
            <Array as="points">
              <mxPoint x="730" y="180" />
              <mxPoint x="1020" y="180" />
            </Array>
          </mxGeometry>
        </mxCell>
        <mxCell id="1wSVD4bbN0lhKhuA_OCm-6" value="" style="dashed=0;outlineConnect=0;html=1;align=center;labelPosition=center;verticalLabelPosition=bottom;verticalAlign=top;shape=mxgraph.weblogos.html5" vertex="1" parent="1">
          <mxGeometry x="710" y="23.93" width="40" height="51" as="geometry" />
        </mxCell>
        <mxCell id="1wSVD4bbN0lhKhuA_OCm-7" value="&lt;font color=&quot;#000033&quot; style=&quot;font-size: 19px&quot;&gt;&lt;br style=&quot;font-size: 19px&quot;&gt;non-www&lt;br style=&quot;font-size: 19px&quot;&gt;cloudfront distribution&lt;br style=&quot;font-size: 19px&quot;&gt;prafulcloud.com&lt;/font&gt;" style="text;html=1;strokeColor=none;fillColor=none;align=center;verticalAlign=middle;whiteSpace=wrap;rounded=0;fontSize=19;fontColor=#0000CC;strokeWidth=23;" vertex="1" parent="1">
          <mxGeometry x="325" y="140" width="110" height="24.5" as="geometry" />
        </mxCell>
        <mxCell id="1wSVD4bbN0lhKhuA_OCm-28" style="edgeStyle=orthogonalEdgeStyle;rounded=0;orthogonalLoop=1;jettySize=auto;html=1;fontSize=20;strokeColor=#FF00FF;startArrow=none;" edge="1" parent="1" source="1wSVD4bbN0lhKhuA_OCm-32">
          <mxGeometry relative="1" as="geometry">
            <mxPoint x="-760" y="510" as="targetPoint" />
            <Array as="points">
              <mxPoint x="-760" y="600" />
            </Array>
          </mxGeometry>
        </mxCell>
        <mxCell id="1wSVD4bbN0lhKhuA_OCm-10" value="" style="outlineConnect=0;dashed=0;verticalLabelPosition=bottom;verticalAlign=top;align=center;html=1;shape=mxgraph.aws3.cloudfront;gradientColor=none;fillColor=#675DF5;" vertex="1" parent="1">
          <mxGeometry x="590" y="405" width="76.5" height="93" as="geometry" />
        </mxCell>
        <mxCell id="1wSVD4bbN0lhKhuA_OCm-11" value="1" style="ellipse;whiteSpace=wrap;html=1;aspect=fixed;strokeWidth=2;fontFamily=Tahoma;spacingBottom=4;spacingRight=2;strokeColor=#b85450;fillColor=#FF00FF;fontSize=19;" vertex="1" parent="1">
          <mxGeometry x="767.53" y="46" width="34.93" height="34.93" as="geometry" />
        </mxCell>
        <mxCell id="1wSVD4bbN0lhKhuA_OCm-12" value="2" style="ellipse;whiteSpace=wrap;html=1;aspect=fixed;strokeWidth=2;fontFamily=Tahoma;spacingBottom=4;spacingRight=2;strokeColor=#d3d3d3;fillColor=#FF00FF;fontSize=20;" vertex="1" parent="1">
          <mxGeometry x="-750" y="200" width="40" height="40" as="geometry" />
        </mxCell>
        <mxCell id="1wSVD4bbN0lhKhuA_OCm-13" value="User is still viewing previous content index.html v1" style="text;html=1;strokeColor=none;fillColor=none;align=center;verticalAlign=middle;whiteSpace=wrap;rounded=0;fontSize=19;strokeWidth=23;fontColor=#000033;" vertex="1" parent="1">
          <mxGeometry x="-815" y="274" width="170" height="20" as="geometry" />
        </mxCell>
        <mxCell id="1wSVD4bbN0lhKhuA_OCm-14" value="Applied Cloudfront Invalidations&lt;br&gt;/*" style="text;html=1;strokeColor=none;fillColor=none;align=center;verticalAlign=middle;whiteSpace=wrap;rounded=0;fontSize=19;strokeWidth=23;fontColor=#000033;" vertex="1" parent="1">
          <mxGeometry x="662.46" y="459.5" width="140" height="19" as="geometry" />
        </mxCell>
        <mxCell id="1wSVD4bbN0lhKhuA_OCm-18" value="3" style="ellipse;whiteSpace=wrap;html=1;aspect=fixed;strokeWidth=2;fontFamily=Tahoma;spacingBottom=4;spacingRight=2;strokeColor=#d3d3d3;fillColor=#FF33FF;fontSize=20;" vertex="1" parent="1">
          <mxGeometry x="705" y="360" width="45" height="45" as="geometry" />
        </mxCell>
        <mxCell id="1wSVD4bbN0lhKhuA_OCm-22" value="" style="endArrow=classic;html=1;" edge="1" parent="1" source="n2wOT85QUNqrd-Oq4VBR-11" target="n2wOT85QUNqrd-Oq4VBR-3">
          <mxGeometry width="50" height="50" relative="1" as="geometry">
            <mxPoint x="1101.07" y="377.5" as="sourcePoint" />
            <mxPoint x="1191.07" y="330" as="targetPoint" />
          </mxGeometry>
        </mxCell>
        <mxCell id="1wSVD4bbN0lhKhuA_OCm-23" value="" style="dashed=0;outlineConnect=0;html=1;align=center;labelPosition=center;verticalLabelPosition=bottom;verticalAlign=top;shape=mxgraph.weblogos.chrome;fontSize=15;fontColor=#000033;fillColor=none;" vertex="1" parent="1">
          <mxGeometry x="1184" y="250" width="80" height="80" as="geometry" />
        </mxCell>
        <mxCell id="YHA0bS81cPaEk5s_DWEJ-4" value="AWS Cloud" style="outlineConnect=0;gradientColor=none;html=1;whiteSpace=wrap;fontSize=12;fontStyle=0;shape=mxgraph.aws4.group;grIcon=mxgraph.aws4.group_aws_cloud;strokeColor=#AAB7B8;fillColor=none;verticalAlign=top;align=left;spacingLeft=30;fontColor=#AAB7B8;dashed=0;" parent="1" vertex="1">
          <mxGeometry x="870" width="500" height="910" as="geometry" />
        </mxCell>
        <mxCell id="1wSVD4bbN0lhKhuA_OCm-26" value="" style="endArrow=classic;html=1;" edge="1" parent="1">
          <mxGeometry width="50" height="50" relative="1" as="geometry">
            <mxPoint x="1085.14" y="274" as="sourcePoint" />
            <mxPoint x="1180" y="280" as="targetPoint" />
          </mxGeometry>
        </mxCell>
        <mxCell id="1wSVD4bbN0lhKhuA_OCm-27" value="New index.html&lt;br&gt;v2" style="text;html=1;strokeColor=none;fillColor=none;align=center;verticalAlign=middle;whiteSpace=wrap;rounded=0;fontSize=19;fontColor=#0000CC;" vertex="1" parent="1">
          <mxGeometry x="1264" y="177.75" width="110" height="224.5" as="geometry" />
        </mxCell>
        <mxCell id="1wSVD4bbN0lhKhuA_OCm-29" value="" style="dashed=0;outlineConnect=0;html=1;align=center;labelPosition=center;verticalLabelPosition=bottom;verticalAlign=top;shape=mxgraph.weblogos.html5" vertex="1" parent="1">
          <mxGeometry x="1204" y="264.5" width="40" height="51" as="geometry" />
        </mxCell>
        <mxCell id="1wSVD4bbN0lhKhuA_OCm-30" value="" style="dashed=0;outlineConnect=0;html=1;align=center;labelPosition=center;verticalLabelPosition=bottom;verticalAlign=top;shape=mxgraph.weblogos.chrome;fontSize=15;fontColor=#000033;fillColor=none;" vertex="1" parent="1">
          <mxGeometry x="-800" y="320" width="80" height="80" as="geometry" />
        </mxCell>
        <mxCell id="1wSVD4bbN0lhKhuA_OCm-32" value="" style="dashed=0;outlineConnect=0;html=1;align=center;labelPosition=center;verticalLabelPosition=bottom;verticalAlign=top;shape=mxgraph.weblogos.chrome;fontSize=15;fontColor=#000033;fillColor=none;" vertex="1" parent="1">
          <mxGeometry x="-794" y="563" width="80" height="80" as="geometry" />
        </mxCell>
        <mxCell id="1wSVD4bbN0lhKhuA_OCm-33" value="" style="edgeStyle=orthogonalEdgeStyle;rounded=0;orthogonalLoop=1;jettySize=auto;html=1;fontSize=20;strokeColor=#FF00FF;endArrow=none;" edge="1" parent="1" source="1wSVD4bbN0lhKhuA_OCm-10" target="1wSVD4bbN0lhKhuA_OCm-32">
          <mxGeometry relative="1" as="geometry">
            <mxPoint x="-760" y="510" as="targetPoint" />
            <mxPoint x="590" y="451.5" as="sourcePoint" />
            <Array as="points">
              <mxPoint x="520" y="452" />
              <mxPoint x="520" y="600" />
            </Array>
          </mxGeometry>
        </mxCell>
        <mxCell id="1wSVD4bbN0lhKhuA_OCm-34" value="" style="dashed=0;outlineConnect=0;html=1;align=center;labelPosition=center;verticalLabelPosition=bottom;verticalAlign=top;shape=mxgraph.weblogos.html5" vertex="1" parent="1">
          <mxGeometry x="-775" y="577.5" width="40" height="51" as="geometry" />
        </mxCell>
        <mxCell id="1wSVD4bbN0lhKhuA_OCm-35" value="4" style="ellipse;whiteSpace=wrap;html=1;aspect=fixed;strokeWidth=2;fontFamily=Tahoma;spacingBottom=4;spacingRight=2;strokeColor=#d3d3d3;fontSize=20;fillColor=#FF33FF;" vertex="1" parent="1">
          <mxGeometry x="-710" y="610" width="50" height="50" as="geometry" />
        </mxCell>
        <mxCell id="1wSVD4bbN0lhKhuA_OCm-36" value="User is viewing new content index.html v2" style="text;html=1;strokeColor=none;fillColor=none;align=center;verticalAlign=middle;whiteSpace=wrap;rounded=0;fontSize=19;strokeWidth=23;fontColor=#000033;" vertex="1" parent="1">
          <mxGeometry x="-780" y="686" width="170" height="20" as="geometry" />
        </mxCell>
        <mxCell id="i-a14JuN5c1ziyFvd1xm-1" value="" style="points=[[0,0,0],[0.25,0,0],[0.5,0,0],[0.75,0,0],[1,0,0],[0,1,0],[0.25,1,0],[0.5,1,0],[0.75,1,0],[1,1,0],[0,0.25,0],[0,0.5,0],[0,0.75,0],[1,0.25,0],[1,0.5,0],[1,0.75,0]];outlineConnect=0;fontColor=#232F3E;gradientColor=#60A337;gradientDirection=north;fillColor=#277116;strokeColor=#ffffff;dashed=0;verticalLabelPosition=bottom;verticalAlign=top;align=center;html=1;fontSize=12;fontStyle=0;aspect=fixed;shape=mxgraph.aws4.resourceIcon;resIcon=mxgraph.aws4.s3;" parent="1" vertex="1">
          <mxGeometry x="870" width="50" height="50" as="geometry" />
        </mxCell>
      </root>
    </mxGraphModel>
  </diagram>
</mxfile>
